<?xml version="1.0" encoding="utf-8"?>
<!-- Generator: Adobe Illustrator 19.2.1, SVG Export Plug-In . SVG Version: 6.00 Build 0)  -->
<svg version="1.1" id="layer" xmlns="http://www.w3.org/2000/svg" xmlns:xlink="http://www.w3.org/1999/xlink" x="0px" y="0px"
	 viewBox="0 0 652 652" style="enable-background:new 0 0 652 652;" xml:space="preserve">
<style type="text/css">
	.st0{fill:#5C6F7C;}
	.st1{fill:#64357D;}
</style>
<path class="st0" d="M736.4,419.1v-15.6h-5.8v-2.1h14v2.1h-5.9v15.6H736.4z"/>
<path class="st0" d="M29.5,222.2c-31.3,39.9,0.8,91.4,72,115c71.2,23.6,154.2,10.1,185.6-29.8c31.3-39.9-0.8-91.4-72-115
	C144,168.9,61,182.2,29.5,222.2z M14.6,227.3c37.5-47.7,129.1-66,204.8-41s106.7,84,69.3,131.6s-129.1,66-204.8,41
	S-22.8,275.1,14.6,227.3z"/>
<path d="M57.9,367.9c2.5-4.8,6.1-9.8,10.6-14.8l2.7,1.2c-1.9,2.4-3.4,4.7-4.6,7.1c-13,24.7,17.2,33.8,67.3,20.3
	s101.2-44.7,114.2-69.4c13-24.7-17.2-33.8-67.3-20.3c-32.6,8.8-65.6,25.1-88.2,42.2l-2-0.8c24.7-18.7,58.8-35.9,91.9-44.9
	c53.3-14.5,84-2.2,68.6,27.3s-71.2,65.2-124.4,79.6C73.2,409.7,42.5,397.5,57.9,367.9z"/>
<path class="st1" d="M66,142.6c-27.1,53.3,0.7,121.8,62.2,153.2s133.3,13.5,160.5-39.7c27.1-53.3-0.7-121.8-62.2-153.2
	C165,71.6,93.1,89.4,66,142.6z M53.1,149.5c32.3-63.5,111.6-87.9,177-54.6s92.3,111.8,59.9,175.3c-32.3,63.5-111.6,87.9-177,54.6
	C47.5,291.3,20.8,212.9,53.1,149.5z"/>
<path class="st1" d="M317.8,559.8c2.2,0,4-0.5,5.2-1.3c1.3-0.9,1.9-2.5,1.9-4.8c0-2.5-0.9-4.1-2.7-5.1c-0.9-0.5-2.2-0.7-3.9-0.7
	h-11.5v11.9L317.8,559.8L317.8,559.8z M302.2,543.9h16.1c2.6,0,4.8,0.4,6.6,1.2c3.3,1.5,4.9,4.2,4.9,8.2c0,2.1-0.5,3.8-1.3,5.1
	c-0.8,1.3-2,2.4-3.7,3.2c1.4,0.6,2.4,1.3,3.1,2.1c0.7,0.9,1.1,2.4,1.2,4.4l0.1,4.7c0,1.3,0.1,2.4,0.4,2.9c0.2,1.1,0.8,1.8,1.5,2.1
	v0.8h-5.8c-0.1-0.4-0.2-0.7-0.4-1.2c-0.1-0.5-0.1-1.4-0.2-2.7l-0.2-5.8c-0.1-2.2-0.9-3.8-2.5-4.6c-0.9-0.5-2.4-0.6-4.2-0.6h-10.7v15
	h-4.7v-34.9L302.2,543.9L302.2,543.9z"/>
<polygon class="st1" points="360.8,543.9 386.2,543.9 386.2,548.2 365.4,548.2 365.4,558.8 384.6,558.8 384.6,562.8 365.4,562.8 
	365.4,574.6 386.5,574.6 386.5,578.7 360.8,578.7 "/>
<path class="st1" d="M419.6,567.5c0.1,2,0.6,3.5,1.4,4.8c1.5,2.4,4.4,3.4,8.2,3.4c1.8,0,3.4-0.2,4.8-0.7c2.8-0.9,4.2-2.7,4.2-5.3
	c0-1.9-0.6-3.3-1.8-4c-1.2-0.8-3.1-1.5-5.7-2l-4.7-1.1c-3.1-0.7-5.3-1.4-6.5-2.2c-2.2-1.4-3.3-3.7-3.3-6.5c0-3.2,1.1-5.7,3.3-7.7
	c2.1-2,5.2-2.9,9.2-2.9c3.7,0,6.7,0.8,9.3,2.6c2.6,1.8,3.9,4.6,3.9,8.4h-4.7c-0.2-1.9-0.7-3.3-1.5-4.2c-1.4-1.8-3.9-2.7-7.3-2.7
	c-2.8,0-4.8,0.6-6,1.8c-1.2,1.2-1.8,2.5-1.8,4.1c0,1.6,0.7,2.9,2.1,3.8c0.9,0.5,3.1,1.2,6.4,1.9l4.8,1.1c2.4,0.6,4.1,1.3,5.4,2.2
	c2.2,1.6,3.3,4,3.3,7.1c0,3.9-1.4,6.6-4.2,8.2c-2.8,1.6-6,2.5-9.8,2.5c-4.4,0-7.7-1.1-10.1-3.3c-2.5-2.2-3.7-5.2-3.7-9h4.6V567.5z"
	/>
<polygon class="st1" points="473,543.9 498.3,543.9 498.3,548.2 477.6,548.2 477.6,558.8 496.8,558.8 496.8,562.8 477.6,562.8 
	477.6,574.6 498.7,574.6 498.7,578.7 473,578.7 "/>
<path class="st1" d="M546.5,564.4l-5.3-15.3l-5.7,15.3H546.5z M538.7,543.9h5.3l12.6,34.8h-5.2l-3.5-10.4h-13.8l-3.8,10.4h-4.8
	L538.7,543.9z"/>
<path class="st1" d="M601,559.8c2.2,0,4-0.5,5.2-1.3c1.3-0.9,1.9-2.5,1.9-4.8c0-2.5-0.9-4.1-2.7-5.1c-0.9-0.5-2.2-0.7-3.9-0.7h-11.5
	v11.9L601,559.8L601,559.8z M585.3,543.9h16.1c2.6,0,4.8,0.4,6.6,1.2c3.3,1.5,4.9,4.2,4.9,8.2c0,2.1-0.5,3.8-1.3,5.1
	c-0.8,1.3-2,2.4-3.7,3.2c1.4,0.6,2.4,1.3,3.1,2.1c0.7,0.9,1.1,2.4,1.2,4.4l0.1,4.7c0,1.3,0.1,2.4,0.4,2.9c0.2,1.1,0.8,1.8,1.5,2.1
	v0.8h-5.8c-0.1-0.4-0.2-0.7-0.4-1.2c-0.1-0.5-0.1-1.4-0.2-2.7l-0.2-5.8c-0.1-2.2-0.9-3.8-2.5-4.6c-0.9-0.5-2.4-0.6-4.2-0.6h-10.7v15
	h-4.7v-34.9L585.3,543.9L585.3,543.9z"/>
<path class="st1" d="M668.5,546.4c2.5,2.4,3.8,4.9,4,7.9h-4.6c-0.5-2.2-1.5-4-3.2-5.3c-1.5-1.3-3.8-2-6.5-2c-3.4,0-6.2,1.2-8.2,3.7
	c-2.1,2.4-3.2,6.1-3.2,11.1c0,4.1,0.9,7.4,2.8,9.9c1.9,2.5,4.7,3.8,8.5,3.8c3.4,0,6.1-1.3,7.9-4c0.9-1.4,1.6-3.3,2.1-5.5h4.6
	c-0.4,3.7-1.8,6.7-4.1,9.2c-2.7,2.9-6.5,4.5-11.2,4.5c-4,0-7.4-1.2-10.1-3.7c-3.7-3.2-5.4-8.2-5.4-15c0-5.2,1.4-9.3,4.1-12.6
	c2.9-3.5,7-5.3,12.1-5.3C662.6,543,666,544.2,668.5,546.4z"/>
<polygon class="st1" points="702.4,543.9 707.1,543.9 707.1,558.3 725.3,558.3 725.3,543.9 730,543.9 730,578.7 725.3,578.7 
	725.3,562.4 707.1,562.4 707.1,578.7 702.4,578.7 "/>
<path class="st0" d="M747,419.1v-17.7h3.5l4.2,12.5c0.4,1.2,0.7,2,0.8,2.6c0.2-0.6,0.5-1.6,0.9-2.8l4.2-12.3h3.2v17.7h-2.3v-14.8
	l-5.1,14.8h-2.1l-5.1-15.1v15.1H747z"/>
<path class="st0" d="M732.3,524.6h-11.9c-3.4,0-6.2-1.1-8.5-3.1c-2-2.2-3.1-5.1-3.1-8.5v-46.2c0-5.4-1.6-9.4-5.1-11.9
	c-3.2-2.5-6.8-3.8-10.8-3.8c-4.1,0-7.7,1.3-10.8,3.8c-3.2,2.5-4.7,6.5-4.7,11.9v57.7h-23.8v-52.9c0-15.4,4-25.7,11.9-30.9
	c8.1-5.2,17.1-8,26.9-8.5c9.9,0,19.1,2.6,27.5,7.8c8.4,5.2,12.6,15.7,12.6,31.6v52.9H732.3z"/>
<path class="st0" d="M-58.8,496.8h17c-2.5,9.5-7.2,16.7-14.3,21.7c-7.1,5.2-15.8,7.8-26.5,7.8c-12.8,0-23-4.2-30.2-12.6
	c-7.2-8.1-10.8-19.8-10.8-35c0-14.5,3.5-25.8,10.5-33.9c7.2-8.4,17.3-12.6,30.2-12.6c13.5,0,24.2,4.1,31.6,12.3
	c4.1,4.9,7.1,10.7,8.8,17.3h-23.8c-1.2-2.2-2.2-4-3.4-5.1c-2.9-3.2-7.1-4.7-12.6-4.7c-4.9,0-9.1,1.5-12.3,4.7
	c-4.1,4.5-6.1,12-6.1,22.4c0,10.4,2,17.8,6.1,22c2.9,3.7,7.3,5.4,13.2,5.4c3.9,0,7.1-0.8,9.9-2.4c0.7-0.2,1.3-0.6,1.6-1.1l2-2
	c0.5-0.7,1.3-1.5,2.7-2.7C-63.6,497.4-61.6,496.8-58.8,496.8z"/>
<path class="st0" d="M129.9,524.6H118c-3.4,0-6.2-1.1-8.5-3.1c-2-2.2-3.1-5.1-3.1-8.5v-46.2c0-5.4-1.6-9.4-5.1-11.9
	c-3.2-2.5-6.8-3.8-10.8-3.8c-4.1,0-7.7,1.3-10.8,3.8c-3.2,2.5-4.7,6.5-4.7,11.9v57.7H51.2v-52.9c0-15.4,4-25.7,11.9-30.9
	c8.1-5.2,17.1-8,26.9-8.5c9.9,0,19.1,2.6,27.5,7.8c8.4,5.2,12.6,15.7,12.6,31.6v52.9H129.9z"/>
<path class="st0" d="M133.8,494.8h23.1c0.2,4.5,1.9,7.9,5.1,10.1c3.4,2.2,7.9,3.4,13.5,3.4c4.1,0,7.5-0.8,10.5-2.4
	c2.7-1.5,4.1-3.8,4.1-6.5c0-4.1-4.7-7.1-14.3-9.2c-4.1-0.7-7.1-1.4-9.2-2c-12-2.9-20-6.5-24.2-10.5c-4.5-4.1-6.8-9.5-6.8-16.3
	c0-8.6,3.3-15.7,9.9-21.3c6.8-5.2,15.7-7.8,26.5-7.8c11.8,0,21.2,2.6,28.2,7.8c6.6,5.7,10,13,10.5,22h-14.6c-4.2,0-7.5-1.9-9.9-5.8
	l-2.7-2.7c-2.7-2-6.5-3.1-11.2-3.1c-4.5,0-7.9,0.7-10.1,2c-2,1.4-3.1,3.4-3.1,6.1c0,3.7,5.9,6.7,17.7,9.2c1.4,0.5,2.5,0.8,3.4,1.1
	c1.2,0.2,2.1,0.4,3.1,0.4c11.5,2.9,19.6,6.4,24.2,10.1c4.2,4.1,6.5,9.5,6.5,16.3c0,10-3.7,17.7-10.8,23.1c-6.8,4.9-17,7.4-30.5,7.4
	c-12.8,0-22.5-2.6-28.9-7.8c-6.6-5.2-9.9-12.7-9.9-22.7L133.8,494.8L133.8,494.8z"/>
<path class="st0" d="M259.9,524.6c-7.4,0.5-15.6,0.4-24.4-0.4c-8.6-0.7-12.8-6.2-12.8-16.6v-99.8h12.1c2.9,0,5.5,1.2,7.8,3.4
	c2.2,2.2,3.4,4.9,3.4,8.1v15.3h13.9v4.7c0,3.4-1.2,6.2-3.4,8.5c-2.2,2-4.9,3.1-8.1,3.1H246v50.2c0,3.9,2.2,5.8,6.8,5.8h7.1
	L259.9,524.6L259.9,524.6z"/>
<path class="st0" d="M352.2,407.8h12.1c3.2,0,5.9,1.2,8.1,3.4c2.2,2,3.4,4.6,3.4,7.8v105.6h-23.8V407.8H352.2z"/>
<path class="st0" d="M383.2,407.8h12.3c3.2,0,5.9,1.2,8.1,3.4c2.2,2,3.4,4.6,3.4,7.8v105.6h-23.8V407.8z"/>
<path class="st0" d="M533.3,524.6c-7.4,0.5-15.6,0.4-24.4-0.4c-8.6-0.7-12.8-6.2-12.8-16.6v-99.8h12.3c2.9,0,5.5,1.2,7.8,3.4
	c2.2,2.2,3.4,4.9,3.4,8.1v15.3h13.9v4.7c0,3.4-1.2,6.2-3.4,8.5c-2.2,2-4.9,3.1-8.1,3.1h-2.4v50.2c0,3.9,2.2,5.8,6.8,5.8h7.1v17.7
	L533.3,524.6L533.3,524.6z"/>
<path class="st0" d="M539.6,434.4h12.3c3.2,0,5.9,1.2,8.1,3.4c2.2,2.2,3.4,4.9,3.4,8.1v78.7h-23.8V434.4L539.6,434.4z"/>
<path class="st0" d="M539.6,407.8h12.3c3.2,0,5.9,1.2,8.1,3.4c2.2,2.2,3.4,4.9,3.4,8.1v7.1h-23.8V407.8L539.6,407.8z"/>
<path class="st0" d="M-24.7,516.5c-4.7-4.1-8.1-9.5-10.1-16.3c-2-7.1-3.1-14.3-3.1-21.7c0-6.1,0.8-12.3,2.4-18.4
	c1.8-6.1,4.5-11.2,8.1-15.3c5.9-6.8,13.4-10.7,22.7-11.9c9.3-1.4,17.7-0.7,25.1,2c8.6,3.4,15,9.3,19,17.7c3.9,7.4,5.8,16.1,5.8,26.2
	c0,7.2-0.8,13.4-2.4,18.6c-1.5,5.2-3.7,9.7-6.1,13.2c-5.4,7.4-12.4,12.1-20.7,13.9c-7.4,2-15.1,2.1-22.7,0.4
	C-14.2,523.4-20.2,520.6-24.7,516.5z M-8.4,456.7c-4.7,5.2-7,13-6.5,23.4c0.5,10.1,2.4,17.3,5.8,21.3c1.4,1.8,3.8,3.4,7.1,4.7
	c3.4,1.2,6.8,1.3,10.1,0.4c3.7-1.2,6.8-3.8,9.5-7.8c2.7-4.1,4.2-10.6,4.4-19.7c0-8.1-1.4-14.3-4.1-18.4c-2.5-4.1-5.4-6.7-8.8-7.8
	c-3.4-1.2-6.8-1.2-10.1,0C-4.4,453.9-6.9,455.2-8.4,456.7z M326.9,496.8h17c-2.5,9.5-7.2,16.7-14.3,21.7c-7.1,5.2-15.8,7.8-26.5,7.8
	c-12.8,0-23-4.2-30.2-12.6c-7.2-8.1-10.8-19.8-10.8-35c0-14.5,3.5-25.8,10.5-33.9c7.2-8.4,17.3-12.6,30.2-12.6
	c13.5,0,24.2,4.1,31.6,12.3c7.2,8.4,10.8,20,10.8,35v2.4v1.4c0,1.2-0.1,1.9-0.4,2.4h-58.7c0.2,7.1,1.9,12.3,5.1,15.7
	c2.9,3.7,7.3,5.4,13.2,5.4c3.9,0,7.1-0.8,9.9-2.4c0.7-0.2,1.3-0.6,1.6-1.1l2-2c0.2-0.7,1.1-1.5,2.4-2.7
	C322.1,497.4,324.2,496.8,326.9,496.8z M286.1,470.3h34.6c-0.5-6.1-2-10.6-4.7-13.5c-2.9-3.2-7.1-4.7-12.6-4.7
	c-4.9,0-9.1,1.5-12.3,4.7C288.1,459.9,286.4,464.4,286.1,470.3z M465.6,479.1c-3.2,1.5-7.5,3.1-13.2,4.4l-7.8,1.6
	c-4.1,1.2-7.1,2.6-8.8,4.4c-1.5,2.5-2.4,4.9-2.4,7.4c0,3.4,1.1,6.1,3.1,8.1c2,1.8,4.9,2.7,8.8,2.7c6.4,0,11.3-1.8,15-5.4
	c3.7-3.7,5.4-8.6,5.4-15v-8.2L465.6,479.1L465.6,479.1z M471,520.8c-4.7,2.5-9.9,4-15.3,4.4c-5.2,0.7-9.9,1.1-13.9,1.1
	c-8.1,0-15.3-2.1-21.3-6.5c-6.1-4.5-9.2-11.9-9.2-22c0-9.5,2.7-16.3,8.1-20.4c5.7-4.1,12.7-6.8,21.3-8.1c1.2,0,2.5-0.1,4.1-0.4
	c1.5-0.5,3.4-0.8,5.4-1.1c9.9-1.4,15-4.2,15-8.8c0-3.4-1.8-5.5-5.4-6.5c-3.4-1.2-6.6-1.6-9.5-1.6c-3.2,0-6,0.5-8.5,1.4
	c-2.5,0.9-4.4,2.6-5.4,5.1h-22.7c0.9-7.1,4.1-12.7,9.5-17.3c6.1-5.2,14.8-7.8,26.2-7.8c12.7,0,22.2,2.1,28.5,6.5
	c6.6,4.5,9.9,10.8,9.9,19v30.9c0,9.1-1.6,16.1-5.1,21.3C479.4,514.9,475.5,518.6,471,520.8z M577.7,516.5
	c-4.7-4.1-8.1-9.5-10.1-16.3c-2-7.1-3.1-14.3-3.1-21.7c0-6.1,0.8-12.3,2.4-18.4c1.8-6.1,4.5-11.2,8.1-15.3
	c5.9-6.8,13.4-10.7,22.7-11.9c9.3-1.4,17.7-0.7,25.1,2c8.6,3.4,15,9.3,19,17.7c3.9,7.4,5.8,16.1,5.8,26.2c0,7.2-0.8,13.4-2.4,18.6
	c-1.5,5.2-3.7,9.7-6.1,13.2c-5.4,7.4-12.4,12.1-20.7,13.9c-7.4,2-15.1,2.1-22.7,0.4C588.3,523.4,582.3,520.6,577.7,516.5z
	 M594.1,456.7c-4.7,5.2-7,13-6.5,23.4c0.5,10.1,2.4,17.3,5.8,21.3c1.4,1.8,3.8,3.4,7.1,4.7c3.4,1.2,6.8,1.3,10.1,0.4
	c3.7-1.2,6.8-3.8,9.5-7.8c2.7-4.1,4.2-10.6,4.4-19.7c0-8.1-1.4-14.3-4.1-18.4c-2.5-4.1-5.4-6.7-8.8-7.8c-3.4-1.2-6.8-1.2-10.1,0
	C598.1,453.9,595.7,455.2,594.1,456.7z"/>
</svg>
